<svg width="57" height="57" viewBox="0 0 57 57" fill="none" xmlns="http://www.w3.org/2000/svg">
<circle cx="28.5" cy="28.5" r="26.5" stroke="#FF6900" stroke-width="4"/>
<g clip-path="url(#clip0_10_44)">
<path d="M14.9286 17.4732C14.9286 17.2483 15.018 17.0325 15.177 16.8734C15.3361 16.7144 15.5518 16.625 15.7768 16.625H18.3214C18.5107 16.6251 18.6944 16.6884 18.8435 16.8049C18.9926 16.9214 19.0984 17.0844 19.1442 17.2679L19.8313 20.0179H39.5268C39.6513 20.018 39.7743 20.0455 39.887 20.0985C39.9997 20.1515 40.0994 20.2287 40.1789 20.3246C40.2584 20.4204 40.3158 20.5326 40.3471 20.6532C40.3783 20.7738 40.3827 20.8997 40.3597 21.0221L37.8151 34.5936C37.7787 34.7879 37.6756 34.9635 37.5235 35.0899C37.3714 35.2163 37.1799 35.2855 36.9822 35.2857H21.7143C21.5166 35.2855 21.3251 35.2163 21.173 35.0899C21.0209 34.9635 20.9177 34.7879 20.8814 34.5936L18.3384 21.0476L17.6598 18.3214H15.7768C15.5518 18.3214 15.3361 18.2321 15.177 18.073C15.018 17.9139 14.9286 17.6982 14.9286 17.4732ZM20.1909 21.7143L22.4183 33.5893H36.2781L38.5056 21.7143H20.1909ZM23.4107 35.2857C22.5109 35.2857 21.6479 35.6432 21.0116 36.2795C20.3753 36.9157 20.0179 37.7787 20.0179 38.6786C20.0179 39.5784 20.3753 40.4414 21.0116 41.0777C21.6479 41.714 22.5109 42.0714 23.4107 42.0714C24.3106 42.0714 25.1736 41.714 25.8098 41.0777C26.4461 40.4414 26.8036 39.5784 26.8036 38.6786C26.8036 37.7787 26.4461 36.9157 25.8098 36.2795C25.1736 35.6432 24.3106 35.2857 23.4107 35.2857ZM35.2857 35.2857C34.3859 35.2857 33.5229 35.6432 32.8866 36.2795C32.2503 36.9157 31.8929 37.7787 31.8929 38.6786C31.8929 39.5784 32.2503 40.4414 32.8866 41.0777C33.5229 41.714 34.3859 42.0714 35.2857 42.0714C36.1856 42.0714 37.0486 41.714 37.6848 41.0777C38.3211 40.4414 38.6786 39.5784 38.6786 38.6786C38.6786 37.7787 38.3211 36.9157 37.6848 36.2795C37.0486 35.6432 36.1856 35.2857 35.2857 35.2857ZM23.4107 36.9821C23.8607 36.9821 24.2921 37.1609 24.6103 37.479C24.9284 37.7972 25.1072 38.2286 25.1072 38.6786C25.1072 39.1285 24.9284 39.56 24.6103 39.8781C24.2921 40.1963 23.8607 40.375 23.4107 40.375C22.9608 40.375 22.5293 40.1963 22.2112 39.8781C21.893 39.56 21.7143 39.1285 21.7143 38.6786C21.7143 38.2286 21.893 37.7972 22.2112 37.479C22.5293 37.1609 22.9608 36.9821 23.4107 36.9821ZM35.2857 36.9821C35.7357 36.9821 36.1671 37.1609 36.4853 37.479C36.8034 37.7972 36.9822 38.2286 36.9822 38.6786C36.9822 39.1285 36.8034 39.56 36.4853 39.8781C36.1671 40.1963 35.7357 40.375 35.2857 40.375C34.8358 40.375 34.4043 40.1963 34.0862 39.8781C33.768 39.56 33.5893 39.1285 33.5893 38.6786C33.5893 38.2286 33.768 37.7972 34.0862 37.479C34.4043 37.1609 34.8358 36.9821 35.2857 36.9821Z" fill="#FF6900"/>
<path d="M20.1909 21.7143L22.4183 33.5893H36.2781L38.5056 21.7143H20.1909Z" fill="#FF6900"/>
</g>
<defs>
<clipPath id="clip0_10_44">
<rect width="27.1429" height="27.1429" fill="white" transform="translate(14.9286 14.9286)"/>
</clipPath>
</defs>
</svg>
