<svg width="60" height="68" viewBox="0 0 60 68" fill="none" xmlns="http://www.w3.org/2000/svg">
<path d="M59 33.9049C59 52.185 45.9053 66.7903 30 66.7903C14.0947 66.7903 1 52.185 1 33.9049C1 15.6249 14.0947 1.01953 30 1.01953C45.9053 1.01953 59 15.6249 59 33.9049Z" fill="#121212" stroke="white" stroke-width="2"/>
<g clip-path="url(#clip0_19_45)">
<path d="M30 16.9623C25.9294 16.9623 25.4175 16.9835 23.8182 17.0639C22.2188 17.1486 21.1294 17.4324 20.175 17.8518C19.174 18.2771 18.2672 18.9442 17.5182 19.8065C16.7552 20.653 16.1646 21.6771 15.7875 22.8075C15.4163 23.8834 15.1632 25.116 15.09 26.9161C15.0188 28.7269 15 29.3029 15 33.9071C15 38.507 15.0188 39.0831 15.09 40.8896C15.165 42.694 15.4163 43.9245 15.7875 45.0024C16.1719 46.1164 16.6838 47.061 17.5182 48.0034C18.3507 48.9458 19.1869 49.5261 20.1732 49.9582C21.1294 50.3775 22.2169 50.6634 23.8144 50.746C25.4157 50.8265 25.9257 50.8477 30 50.8477C34.0744 50.8477 34.5825 50.8265 36.1838 50.746C37.7794 50.6613 38.8725 50.3775 39.8269 49.9582C40.8273 49.5327 41.7334 48.8655 42.4819 48.0034C43.3163 47.061 43.8282 46.1164 44.2125 45.0024C44.5819 43.9245 44.835 42.694 44.91 40.8896C44.9813 39.0831 45 38.507 45 33.905C45 29.3029 44.9813 28.7269 44.91 26.9182C44.835 25.116 44.5819 23.8834 44.2125 22.8075C43.8355 21.6771 43.2449 20.653 42.4819 19.8065C41.7331 18.9439 40.8263 18.2767 39.825 17.8518C38.8688 17.4324 37.7775 17.1465 36.1819 17.0639C34.5807 16.9835 34.0725 16.9623 29.9963 16.9623H30.0019H30ZM28.6557 20.0162H30.0019C34.0069 20.0162 34.4813 20.031 36.0619 20.1136C37.5244 20.1877 38.3194 20.4652 38.8482 20.696C39.5475 21.0031 40.0482 21.3716 40.5732 21.9646C41.0982 22.5576 41.4225 23.1209 41.6944 23.913C41.9007 24.5081 42.1444 25.4061 42.21 27.058C42.2832 28.8433 42.2982 29.3792 42.2982 33.9007C42.2982 38.4223 42.2832 38.9602 42.21 40.7456C42.1444 42.3975 41.8988 43.2933 41.6944 43.8906C41.4539 44.6262 41.0701 45.2914 40.5713 45.8369C40.0463 46.4299 39.5475 46.7962 38.8463 47.1033C38.3213 47.3363 37.5263 47.6116 36.0619 47.6879C34.4813 47.7683 34.0069 47.7874 30.0019 47.7874C25.9969 47.7874 25.5207 47.7683 23.94 47.6879C22.4775 47.6116 21.6844 47.3363 21.1557 47.1033C20.5041 46.8321 19.9146 46.3993 19.4307 45.8369C18.9314 45.2905 18.547 44.6247 18.3057 43.8885C18.1013 43.2933 17.8557 42.3954 17.79 40.7435C17.7188 38.9581 17.7038 38.4223 17.7038 33.8965C17.7038 29.3728 17.7188 28.8391 17.79 27.0538C17.8575 25.4019 18.1013 24.5039 18.3075 23.9067C18.5794 23.1167 18.9057 22.5513 19.4307 21.9583C19.9557 21.3653 20.4544 20.9989 21.1557 20.6918C21.6844 20.4588 22.4775 20.1835 23.94 20.1073C25.3238 20.0353 25.86 20.0141 28.6557 20.012V20.0162ZM38.0082 22.8287C37.7718 22.8287 37.5377 22.8813 37.3193 22.9835C37.1009 23.0856 36.9025 23.2354 36.7354 23.4242C36.5682 23.613 36.4356 23.8371 36.3452 24.0838C36.2547 24.3304 36.2082 24.5948 36.2082 24.8618C36.2082 25.1288 36.2547 25.3932 36.3452 25.6399C36.4356 25.8865 36.5682 26.1107 36.7354 26.2994C36.9025 26.4882 37.1009 26.638 37.3193 26.7402C37.5377 26.8423 37.7718 26.8949 38.0082 26.8949C38.4855 26.8949 38.9434 26.6807 39.2809 26.2994C39.6185 25.9182 39.8082 25.401 39.8082 24.8618C39.8082 24.3226 39.6185 23.8055 39.2809 23.4242C38.9434 23.0429 38.4855 22.8287 38.0082 22.8287ZM30.0019 25.2049C28.9802 25.1869 27.9655 25.3987 27.0169 25.8278C26.0683 26.257 25.2047 26.8951 24.4766 27.7048C23.7484 28.5146 23.1701 29.4799 22.7754 30.5445C22.3806 31.6091 22.1773 32.7518 22.1773 33.906C22.1773 35.0602 22.3806 36.2029 22.7754 37.2675C23.1701 38.3322 23.7484 39.2975 24.4766 40.1072C25.2047 40.917 26.0683 41.555 27.0169 41.9842C27.9655 42.4134 28.9802 42.6252 30.0019 42.6072C32.0242 42.5715 33.9529 41.6391 35.3719 40.0112C36.7908 38.3833 37.5861 36.1905 37.5861 33.906C37.5861 31.6216 36.7908 29.4287 35.3719 27.8008C33.9529 26.1729 32.0242 25.2405 30.0019 25.2049ZM30.0019 28.2567C31.3282 28.2567 32.6001 28.8518 33.5379 29.911C34.4757 30.9703 35.0025 32.407 35.0025 33.905C35.0025 35.403 34.4757 36.8396 33.5379 37.8989C32.6001 38.9582 31.3282 39.5532 30.0019 39.5532C28.6757 39.5532 27.4037 38.9582 26.4659 37.8989C25.5281 36.8396 25.0013 35.403 25.0013 33.905C25.0013 32.407 25.5281 30.9703 26.4659 29.911C27.4037 28.8518 28.6757 28.2567 30.0019 28.2567Z" fill="white"/>
</g>
<defs>
<clipPath id="clip0_19_45">
<rect width="30" height="33.8854" fill="white" transform="translate(15 16.9623)"/>
</clipPath>
</defs>
</svg>
