<svg width="79" height="56" viewBox="0 0 79 56" fill="none" xmlns="http://www.w3.org/2000/svg">
<path d="M20.6875 21.2969C21.1146 21.2969 21.3281 21.5365 21.3281 22.0156C21.3281 22.4115 21.026 22.8073 20.4219 23.2031C19.2969 23.9427 18.349 24.4271 17.5781 24.6562C16.1302 25.0833 14.6094 25.2969 13.0156 25.2969C11.4219 25.2969 9.88542 25.0156 8.40625 24.4531C6.9375 23.8802 5.68229 23.0833 4.64062 22.0625C2.46354 19.9167 1.375 17.1458 1.375 13.75C1.375 12.1146 1.68229 10.6146 2.29688 9.25C2.91146 7.875 3.76042 6.69792 4.84375 5.71875C7.13542 3.64583 10.0156 2.60938 13.4844 2.60938C15.4323 2.60938 17.1458 2.94271 18.625 3.60938C20.1979 4.30729 20.9844 4.90104 20.9844 5.39062C20.9844 5.58854 20.9167 5.76042 20.7812 5.90625C20.6562 6.05208 20.5104 6.125 20.3438 6.125C20.0104 6.125 19.7083 5.97917 19.4375 5.6875C19.1667 5.38542 18.7969 5.11458 18.3281 4.875C17.8698 4.63542 17.3646 4.42708 16.8125 4.25C15.6875 3.90625 14.6615 3.73438 13.7344 3.73438C12.8177 3.73438 12.0573 3.79688 11.4531 3.92188V23.9531C12.1823 24.0781 12.8281 24.1406 13.3906 24.1406C13.9531 24.1406 14.526 24.1042 15.1094 24.0312C15.6927 23.9583 16.2656 23.8385 16.8281 23.6719C18.0885 23.2969 19.0365 22.7448 19.6719 22.0156C19.901 21.7448 20.0833 21.5573 20.2188 21.4531C20.3542 21.349 20.5104 21.2969 20.6875 21.2969ZM28.4219 5.57812C27.349 5.57812 26.5104 5.33854 25.9062 4.85938C25.3021 4.38021 25 3.75 25 2.96875C25 2.3125 25.3333 1.75 26 1.28125C26.7083 0.78125 27.4583 0.53125 28.25 0.53125C29.0417 0.53125 29.651 0.609375 30.0781 0.765625C30.5156 0.921875 30.8854 1.125 31.1875 1.375C31.7917 1.88542 32.0938 2.47917 32.0938 3.15625C32.0938 3.83333 31.75 4.40625 31.0625 4.875C30.375 5.34375 29.4948 5.57812 28.4219 5.57812ZM25.1406 8.3125H31.8594V25H25.1406V8.3125ZM48.5469 10.0156C48.2865 9.84896 48.0052 9.76562 47.7031 9.76562C47.401 9.76562 47.0885 9.83854 46.7656 9.98438C46.4427 10.1198 46.1042 10.3125 45.75 10.5625C45.0104 11.0938 44.3281 11.8021 43.7031 12.6875V25H36.9844V8.3125H43.7031V10.9844C45.4844 9.01562 47.5 8.03125 49.75 8.03125C53.4271 8.03125 55.2656 9.8125 55.2656 13.375V25H48.5469V10.0156ZM74.8906 21.2031C75.2969 21.2031 75.5 21.3906 75.5 21.7656C75.5 22.0469 75.3177 22.3802 74.9531 22.7656C73.3073 24.4531 71.0521 25.2969 68.1875 25.2969C65.6146 25.2969 63.4479 24.5208 61.6875 22.9688C59.8646 21.3542 58.9531 19.3125 58.9531 16.8438C58.9531 14.3229 59.776 12.25 61.4219 10.625C63.1615 8.89583 65.474 8.03125 68.3594 8.03125C70.6719 8.03125 72.6146 8.73438 74.1875 10.1406C75.8854 11.651 76.7344 13.6354 76.7344 16.0938C76.7344 16.4479 76.724 16.8229 76.7031 17.2188H66.3906V23.9219C67.099 24.0677 67.8958 24.1406 68.7812 24.1406C70.6562 24.1406 72.2552 23.5208 73.5781 22.2812C73.849 22.0104 74.0417 21.7969 74.1562 21.6406C74.3958 21.349 74.6406 21.2031 74.8906 21.2031ZM70.7188 9.46875C70.0417 9.27083 69.276 9.17188 68.4219 9.17188C67.5677 9.17188 66.8906 9.22917 66.3906 9.34375V16.0781H70.7188V9.46875ZM1.60938 52.7656L1.65625 54.3281C1.65625 54.599 1.58333 54.8073 1.4375 54.9531C1.29167 55.099 1.11458 55.1719 0.90625 55.1719C0.708333 55.1719 0.541667 55.1042 0.40625 54.9688C0.270833 54.8333 0.203125 54.6875 0.203125 54.5312C0.203125 54.3646 0.213542 54.2135 0.234375 54.0781C0.265625 53.9323 0.291667 53.7708 0.3125 53.5938C0.364583 53.2917 0.390625 52.5365 0.390625 51.3281V31.8906L17.375 45.3594V36.0469C17.375 35.3385 17.3542 34.8333 17.3125 34.5312C17.2604 34.0417 17.2344 33.6979 17.2344 33.5C17.2344 32.9792 17.4583 32.7188 17.9062 32.7188C18.0833 32.7188 18.25 32.7812 18.4062 32.9062C18.5729 33.0312 18.6562 33.2135 18.6562 33.4531V34L18.5938 36.2656V55.8594L1.60938 42.5312V52.7656ZM34.5938 53.9688C33.2604 54.8542 31.7812 55.2969 30.1562 55.2969C28 55.2969 26.2708 54.7552 24.9688 53.6719C23.6146 52.5573 22.9375 51.0104 22.9375 49.0312C22.9375 47.2812 23.6094 45.8438 24.9531 44.7188C26.3281 43.5833 28.1354 43.0156 30.375 43.0156C31.875 43.0156 33.2812 43.3021 34.5938 43.875V39.5781C33.6458 39.3073 32.8073 39.1719 32.0781 39.1719C31.3594 39.1719 30.75 39.2031 30.25 39.2656C29.75 39.3281 29.276 39.4219 28.8281 39.5469C27.8594 39.8177 27.125 40.1823 26.625 40.6406C26.3333 40.9115 26.0677 41.0469 25.8281 41.0469C25.5885 41.0469 25.4062 40.9896 25.2812 40.875C25.1562 40.75 25.0938 40.6146 25.0938 40.4688C25.0938 40.3229 25.1198 40.1927 25.1719 40.0781C25.224 39.9531 25.3229 39.8281 25.4688 39.7031C25.7812 39.4323 26.3021 39.1615 27.0312 38.8906C28.5417 38.3177 30.0573 38.0312 31.5781 38.0312C36.2031 38.0312 39.1562 39.1354 40.4375 41.3438C41 42.3229 41.2812 43.6094 41.2812 45.2031V55H34.5938V53.9688ZM34.5938 45.0938C33.2812 44.4583 31.974 44.1406 30.6719 44.1406C30.4635 44.1406 30.2656 44.1562 30.0781 44.1875V54.125C30.1302 54.1354 30.1875 54.1406 30.25 54.1406C30.3125 54.1406 30.375 54.1406 30.4375 54.1406C31.8646 54.1406 33.25 53.6354 34.5938 52.625V45.0938ZM52.5938 55.2969C48.5104 55.2969 46.4688 53.4323 46.4688 49.7031L46.4531 39.4531L44.6562 39.5312C44.0938 39.5312 43.8125 39.3177 43.8125 38.8906C43.8125 38.4635 44.1146 38.25 44.7188 38.25L46.2188 38.3125H46.4531V35.8906L53.1562 32.8906V38.3125H55.25L56.7344 38.25C57.349 38.25 57.6562 38.4688 57.6562 38.9062C57.6562 39.1042 57.5677 39.2604 57.3906 39.375C57.224 39.4792 57.0312 39.5312 56.8125 39.5312L54.875 39.4531H53.1562V54.1406C54.375 54.1198 55.3906 53.7708 56.2031 53.0938C56.5885 52.8021 56.8594 52.4271 57.0156 51.9688C57.1823 51.5104 57.3281 51.2188 57.4531 51.0938C57.5885 50.9583 57.7448 50.8906 57.9219 50.8906C58.099 50.8906 58.25 50.9635 58.375 51.1094C58.5 51.2448 58.5625 51.4115 58.5625 51.6094C58.5625 51.7969 58.5104 52.0104 58.4062 52.25C58.3021 52.4792 58.1458 52.724 57.9375 52.9844C57.4688 53.5677 56.9271 54.0312 56.3125 54.375C55.1979 54.9896 53.9583 55.2969 52.5938 55.2969ZM71.6875 53.9688C70.3542 54.8542 68.875 55.2969 67.25 55.2969C65.0938 55.2969 63.3646 54.7552 62.0625 53.6719C60.7083 52.5573 60.0312 51.0104 60.0312 49.0312C60.0312 47.2812 60.7031 45.8438 62.0469 44.7188C63.4219 43.5833 65.2292 43.0156 67.4688 43.0156C68.9688 43.0156 70.375 43.3021 71.6875 43.875V39.5781C70.7396 39.3073 69.901 39.1719 69.1719 39.1719C68.4531 39.1719 67.8438 39.2031 67.3438 39.2656C66.8438 39.3281 66.3698 39.4219 65.9219 39.5469C64.9531 39.8177 64.2188 40.1823 63.7188 40.6406C63.4271 40.9115 63.1615 41.0469 62.9219 41.0469C62.6823 41.0469 62.5 40.9896 62.375 40.875C62.25 40.75 62.1875 40.6146 62.1875 40.4688C62.1875 40.3229 62.2135 40.1927 62.2656 40.0781C62.3177 39.9531 62.4167 39.8281 62.5625 39.7031C62.875 39.4323 63.3958 39.1615 64.125 38.8906C65.6354 38.3177 67.151 38.0312 68.6719 38.0312C73.2969 38.0312 76.25 39.1354 77.5312 41.3438C78.0938 42.3229 78.375 43.6094 78.375 45.2031V55H71.6875V53.9688ZM71.6875 45.0938C70.375 44.4583 69.0677 44.1406 67.7656 44.1406C67.5573 44.1406 67.3594 44.1562 67.1719 44.1875V54.125C67.224 54.1354 67.2812 54.1406 67.3438 54.1406C67.4062 54.1406 67.4688 54.1406 67.5312 54.1406C68.9583 54.1406 70.3438 53.6354 71.6875 52.625V45.0938Z" fill="white"/>
</svg>
