<svg width="60" height="68" viewBox="0 0 60 68" fill="none" xmlns="http://www.w3.org/2000/svg">
<path d="M59 33.9049C59 52.185 45.9053 66.7903 30 66.7903C14.0947 66.7903 1 52.185 1 33.9049C1 15.6249 14.0947 1.01953 30 1.01953C45.9053 1.01953 59 15.6249 59 33.9049Z" fill="#121212" stroke="white" stroke-width="2"/>
<g clip-path="url(#clip0_19_41)">
<path d="M45 33.905C45 38.3985 43.4197 42.7079 40.6066 45.8853C37.7936 49.0626 33.9783 50.8477 30 50.8477C26.0218 50.8477 22.2065 49.0626 19.3934 45.8853C16.5804 42.7079 15 38.3985 15 33.905C15 29.4115 16.5804 25.1021 19.3934 21.9247C22.2065 18.7473 26.0218 16.9623 30 16.9623C33.9783 16.9623 37.7936 18.7473 40.6066 21.9247C43.4197 25.1021 45 29.4115 45 33.905ZM30.5382 29.4702C29.0794 30.1564 26.1619 31.5754 21.7894 33.7271C21.0807 34.0447 20.7075 34.3582 20.6738 34.6632C20.6175 35.1778 21.1894 35.3811 21.9675 35.6585L22.2957 35.775C23.0607 36.0567 24.0919 36.385 24.6263 36.3977C25.1138 36.4104 25.6557 36.1859 26.2538 35.72C30.3394 32.6046 32.4488 31.0311 32.58 30.9972C32.6738 30.9718 32.805 30.9421 32.8913 31.0311C32.9794 31.1179 32.97 31.2852 32.9607 31.3297C32.9044 31.6029 30.66 33.9579 29.4994 35.1778C29.1375 35.559 28.8807 35.828 28.8282 35.8894C28.7125 36.0228 28.595 36.1542 28.4757 36.2833C27.7632 37.0584 27.2307 37.6387 28.5038 38.5875C29.1169 39.045 29.6082 39.4198 30.0975 39.7968C30.63 40.2077 31.1625 40.6164 31.8525 41.1289C32.0269 41.256 32.1957 41.3936 32.3588 41.5249C32.9794 42.0248 33.54 42.4737 34.2282 42.4017C34.6294 42.3594 35.0438 41.9358 35.2538 40.6651C35.7507 37.6641 36.7275 31.1645 36.9525 28.4854C36.9663 28.2627 36.9581 28.039 36.9282 27.8183C36.9105 27.6402 36.8342 27.4762 36.7144 27.3587C36.5438 27.2257 36.3404 27.1568 36.1332 27.1618C35.5707 27.1724 34.7025 27.5133 30.5382 29.4702Z" fill="white"/>
</g>
<defs>
<clipPath id="clip0_19_41">
<rect width="30" height="33.8854" fill="white" transform="translate(15 16.9623)"/>
</clipPath>
</defs>
</svg>
