<svg width="60" height="68" viewBox="0 0 60 68" fill="none" xmlns="http://www.w3.org/2000/svg">
<path d="M59 33.9049C59 52.185 45.9053 66.7903 30 66.7903C14.0947 66.7903 1 52.185 1 33.9049C1 15.6249 14.0947 1.01953 30 1.01953C45.9053 1.01953 59 15.6249 59 33.9049Z" fill="#121212" stroke="white" stroke-width="2"/>
<g clip-path="url(#clip0_19_37)">
<path d="M24.4238 48.7298C35.745 48.7298 41.9382 38.1343 41.9382 28.9619C41.9382 28.6654 41.9382 28.3647 41.9269 28.0682C43.1326 27.0823 44.1733 25.8617 45 24.4636C43.8737 25.0246 42.6802 25.3942 41.4582 25.5607C42.7454 24.6916 43.7095 23.3242 44.1713 21.7126C42.9619 22.5219 41.6382 23.09 40.2582 23.392C39.3304 22.276 38.1027 21.5366 36.7652 21.2885C35.4277 21.0404 34.0551 21.2973 32.86 22.0195C31.6649 22.7417 30.714 23.8889 30.1546 25.2834C29.5952 26.6778 29.4585 28.2417 29.7657 29.7328C27.3183 29.5942 24.9241 28.8761 22.7382 27.625C20.5524 26.374 18.6238 24.6179 17.0775 22.4708C16.2925 24.0021 16.053 25.8136 16.4075 27.5372C16.762 29.2608 17.684 30.7674 18.9863 31.7511C18.0104 31.7137 17.056 31.4177 16.2 30.887V30.9823C16.2017 32.5866 16.6937 34.1409 17.5929 35.3827C18.4921 36.6245 19.7433 37.4775 21.135 37.7975C20.6068 37.9619 20.0611 38.0439 19.5132 38.0411C19.1269 38.0424 18.7414 38.002 18.3619 37.9204C18.7553 39.3013 19.5212 40.5087 20.5524 41.3735C21.5836 42.2382 22.8284 42.717 24.1125 42.7427C21.9311 44.678 19.2364 45.7276 16.4625 45.7225C15.9738 45.7248 15.4853 45.693 15 45.6272C17.8154 47.6545 21.085 48.731 24.4238 48.7298Z" fill="white"/>
</g>
<defs>
<clipPath id="clip0_19_37">
<rect width="30" height="33.8854" fill="white" transform="translate(15 16.9623)"/>
</clipPath>
</defs>
</svg>
